<svg width="52" height="42" viewBox="0 0 52 42" fill="none" xmlns="http://www.w3.org/2000/svg">
<path d="M25.9919 26.25C30.6564 26.25 34.3687 22.4306 34.3687 17.7188C34.3687 13.0069 30.5874 9.1875 25.9919 9.1875C21.3273 9.1875 17.615 13.0069 17.615 17.7188C17.5419 22.4273 21.3281 26.25 25.9919 26.25ZM30.0544 28.875H21.9456C15.5675 28.875 10.4 33.7723 10.4 39.8098C10.4 41.0238 11.4319 42 12.7075 42H39.2925C40.5681 42 41.6 41.0238 41.6 39.8098C41.6 33.7723 36.4325 28.875 30.0544 28.875ZM41.6 13.125C45.1896 13.125 48.1 10.1866 48.1 6.5625C48.1 2.93836 45.1912 0 41.6 0C38.0104 0 35.1 2.93836 35.1 6.5625C35.1 10.1866 38.0087 13.125 41.6 13.125ZM14.9419 17.7188C14.9419 17.2718 15.0217 16.8468 15.0726 16.4136C14.1862 15.9223 13.2112 15.75 12.1794 15.75H7.1565C3.2045 15.75 0 19.1789 0 23.4035C0 24.2484 0.640819 24.9375 1.43163 24.9375H17.641C15.9819 22.9852 14.9419 20.4832 14.9419 17.7188ZM10.4 13.125C13.9896 13.125 16.9 10.1866 16.9 6.5625C16.9 2.93836 13.9912 0 10.4 0C6.81037 0 3.9 2.93836 3.9 6.5625C3.9 10.1866 6.81037 13.125 10.4 13.125ZM44.8419 15.75H39.8174C38.7774 15.75 37.7959 15.9991 36.9037 16.4259C36.9525 16.8574 37.0337 17.2758 37.0337 17.7188C37.0337 20.484 35.9954 22.986 34.3395 24.9375H50.5651C51.3581 24.9375 52 24.2484 52 23.4035C52 19.1789 48.7988 15.75 44.8419 15.75Z" fill="#FBBC33"/>
</svg>
