<svg width="44" height="45" viewBox="0 0 44 45" fill="none" xmlns="http://www.w3.org/2000/svg">
<path d="M42.923 1.7188C41.4908 0.306034 39.1706 0.306034 37.7384 1.7188L1.07415 37.8856C-0.35805 39.2984 -0.35805 41.5871 1.07415 42.9998C1.79369 43.7073 2.73092 44.0577 3.66929 44.0577C4.60767 44.0577 5.54604 43.7045 6.261 42.9981L42.9253 6.83132C44.3552 5.41573 44.3552 3.13157 42.923 1.7188ZM7.33572 15.1243C11.3802 15.1243 14.6686 11.8783 14.6686 7.89089C14.6686 3.9035 11.3802 0.658661 7.33572 0.658661C3.29119 0.658661 0.00286435 3.90463 0.00286435 7.89089C0.00286435 11.8772 3.29119 15.1243 7.33572 15.1243ZM36.6671 29.591C32.6226 29.591 29.3343 32.8369 29.3343 36.8243C29.3343 40.8117 32.6226 44.0577 36.6671 44.0577C40.7117 44.0577 44 40.8117 44 36.8243C44 32.8369 40.7117 29.591 36.6671 29.591Z" fill="#FBBC33"/>
</svg>
