<svg width="42" height="42" viewBox="0 0 42 42" fill="none" xmlns="http://www.w3.org/2000/svg">
<path d="M42 6.5625C42 8.03988 40.827 9.40078 38.85 10.5C36.4629 11.8207 32.9109 12.7559 28.8176 13.0348C28.5223 12.8953 28.2105 12.7559 27.8988 12.6246C24.6586 11.2711 20.3602 10.5 15.75 10.5C15.0691 10.5 14.4047 10.5164 13.7402 10.5492L13.65 10.5C11.673 9.40078 10.5 8.03988 10.5 6.5625C10.5 2.93836 17.4809 0 26.25 0C34.9453 0 42 2.93836 42 6.5625ZM13.1824 13.2152C14.0191 13.1578 14.8723 13.125 15.75 13.125C20.8523 13.125 25.3805 14.134 28.2598 15.7008C30.2941 16.8082 31.5 18.1863 31.5 19.6875C31.5 19.9418 31.4426 20.3355 31.3277 20.6473C30.9504 21.7301 29.8676 22.7227 28.4566 23.5676C28.4484 23.5676 28.432 23.5758 28.4238 23.584C28.3992 23.6004 28.3746 23.6086 28.35 23.625C25.4789 25.2164 20.9016 26.25 15.75 26.25C10.8609 26.25 6.48539 25.323 3.59625 23.8629C3.44285 23.7809 3.29355 23.6332 3.14918 23.625C1.17141 22.5258 0 21.1641 0 19.6875C0 16.8328 4.38293 14.3965 10.5 13.5023C11.3613 13.3711 12.2555 13.2727 13.1824 13.2152ZM32.148 15.307C34.4695 14.9461 36.5941 14.3719 38.3988 13.6254C39.7359 13.0676 40.9746 12.3785 42 11.5336V14.4375C42 16.0207 40.6465 17.4809 38.407 18.6129C37.2012 19.2199 35.7492 19.7285 34.1086 20.1223C34.1168 19.9828 34.125 19.8352 34.125 19.6875C34.125 17.891 33.2555 16.4145 32.148 15.307ZM31.5 27.5625C31.5 29.0391 30.327 30.4008 28.35 31.5C28.2023 31.5082 28.0547 31.6559 27.907 31.7379C25.0113 33.198 20.6391 34.125 15.75 34.125C10.5984 34.125 6.02273 33.0914 3.14918 31.5C1.17141 30.4008 2.46094e-05 29.0391 2.46094e-05 27.5625V24.6586C1.02129 25.5035 2.2657 26.1926 3.60363 26.7504C6.84469 28.1039 11.1398 28.875 15.75 28.875C20.3602 28.875 24.6586 28.1039 27.8988 26.7504C28.5387 26.4879 29.1539 26.1844 29.7363 25.8563C30.2367 25.5773 30.7043 25.2656 31.1473 24.9375C31.2703 24.8473 31.3852 24.7488 31.5 24.6586V27.5625ZM34.125 22.8129C35.6098 22.4027 37.1191 22.0336 38.3988 21.5004C39.7359 20.9426 40.9746 20.2535 42 19.4086V22.3125C42 23.1738 41.5898 24.0352 40.7777 24.8473C39.4406 26.1844 37.0863 27.2836 34.1086 27.9973C34.1168 27.8578 34.125 27.7102 34.125 27.5625V22.8129ZM15.75 36.75C20.3602 36.75 24.6586 35.9789 27.8988 34.6254C29.2359 34.0676 30.4746 33.3785 31.5 32.5336V35.4375C31.5 39.0633 24.4453 42 15.75 42C7.05141 42 2.46094e-05 39.0633 2.46094e-05 35.4375V32.5336C1.02129 33.3785 2.2657 34.0676 3.60363 34.6254C6.84469 35.9789 11.1398 36.75 15.75 36.75Z" fill="#FBBC33"/>
</svg>
